<svg width="348" height="149" viewBox="0 0 348 149" fill="none" xmlns="http://www.w3.org/2000/svg">
<path d="M48.4259 73.2026C52.4697 74.0644 55.718 76.0863 58.1707 79.2683C60.6235 82.384 61.8499 85.9637 61.8499 90.0075C61.8499 95.8411 59.7949 100.482 55.6848 103.929C51.641 107.31 45.9731 109 38.6811 109H6.1651V39.1951H37.5873C44.6804 39.1951 50.2158 40.8192 54.1933 44.0675C58.237 47.3158 60.2589 51.7242 60.2589 57.2927C60.2589 61.4027 59.1651 64.8167 56.9775 67.5347C54.8562 70.2526 52.0056 72.142 48.4259 73.2026ZM23.1689 67.4353H34.3058C37.0901 67.4353 39.2114 66.8386 40.6698 65.6454C42.1945 64.3859 42.9569 62.5628 42.9569 60.1763C42.9569 57.7899 42.1945 55.9668 40.6698 54.7073C39.2114 53.4478 37.0901 52.818 34.3058 52.818H23.1689V67.4353ZM35.6979 95.2777C38.5485 95.2777 40.7361 94.6479 42.2608 93.3884C43.8518 92.0625 44.6473 90.1732 44.6473 87.7204C44.6473 85.2677 43.8186 83.3452 42.1614 81.9531C40.5704 80.561 38.3496 79.8649 35.4991 79.8649H23.1689V95.2777H35.6979ZM68.3312 81.1576C68.3312 75.4565 69.3919 70.4515 71.5132 66.1426C73.7008 61.8336 76.6508 58.5191 80.3631 56.1989C84.0754 53.8787 88.2186 52.7186 92.7928 52.7186C96.7039 52.7186 100.118 53.5141 103.035 55.105C106.018 56.696 108.305 58.7842 109.896 61.3696V53.5141H126.9V109H109.896V101.144C108.239 103.73 105.918 105.818 102.935 107.409C100.019 109 96.6045 109.795 92.6933 109.795C88.1855 109.795 84.0754 108.635 80.3631 106.315C76.6508 103.929 73.7008 100.581 71.5132 96.272C69.3919 91.8968 68.3312 86.8587 68.3312 81.1576ZM109.896 81.257C109.896 77.0144 108.703 73.6667 106.316 71.2139C103.996 68.7611 101.145 67.5347 97.7646 67.5347C94.3837 67.5347 91.5001 68.7611 89.1136 71.2139C86.7934 73.6004 85.6333 76.9149 85.6333 81.1576C85.6333 85.4002 86.7934 88.7811 89.1136 91.3002C91.5001 93.753 94.3837 94.9794 97.7646 94.9794C101.145 94.9794 103.996 93.753 106.316 91.3002C108.703 88.8474 109.896 85.4997 109.896 81.257ZM156.205 62.7617C158.194 59.7123 160.68 57.3258 163.663 55.6022C166.646 53.8124 169.96 52.9174 173.606 52.9174V70.9156H168.933C164.69 70.9156 161.508 71.8436 159.387 73.6998C157.266 75.4897 156.205 78.6717 156.205 83.2458V109H139.201V53.5141H156.205V62.7617ZM198.738 61.3696C200.329 58.7842 202.616 56.696 205.599 55.105C208.582 53.5141 211.996 52.7186 215.841 52.7186C220.415 52.7186 224.558 53.8787 228.27 56.1989C231.983 58.5191 234.9 61.8336 237.021 66.1426C239.209 70.4515 240.302 75.4565 240.302 81.1576C240.302 86.8587 239.209 91.8968 237.021 96.272C234.9 100.581 231.983 103.929 228.27 106.315C224.558 108.635 220.415 109.795 215.841 109.795C211.93 109.795 208.516 109.033 205.599 107.508C202.682 105.917 200.395 103.829 198.738 101.244V109H181.734V35.4165H198.738V61.3696ZM223 81.1576C223 76.9149 221.807 73.6004 219.421 71.2139C217.1 68.7611 214.217 67.5347 210.77 67.5347C207.389 67.5347 204.505 68.7611 202.118 71.2139C199.798 73.6667 198.638 77.0144 198.638 81.257C198.638 85.4997 199.798 88.8474 202.118 91.3002C204.505 93.753 207.389 94.9794 210.77 94.9794C214.15 94.9794 217.034 93.753 219.421 91.3002C221.807 88.7811 223 85.4002 223 81.1576ZM301.527 80.3621C301.527 81.9531 301.427 83.6104 301.229 85.334H262.746C263.012 88.7811 264.105 91.4328 266.028 93.2889C268.017 95.0788 270.436 95.9737 273.287 95.9737C277.529 95.9737 280.479 94.1839 282.137 90.6041H300.234C299.306 94.2502 297.616 97.5316 295.163 100.448C292.776 103.365 289.76 105.652 286.114 107.31C282.468 108.967 278.391 109.795 273.883 109.795C268.447 109.795 263.608 108.635 259.366 106.315C255.123 103.995 251.808 100.68 249.422 96.3715C247.035 92.0625 245.842 87.0244 245.842 81.257C245.842 75.4897 247.002 70.4515 249.322 66.1426C251.709 61.8336 255.023 58.5191 259.266 56.1989C263.509 53.8787 268.381 52.7186 273.883 52.7186C279.253 52.7186 284.026 53.8455 288.202 56.0994C292.379 58.3533 295.627 61.5685 297.947 65.7448C300.334 69.9212 301.527 74.7936 301.527 80.3621ZM284.125 75.8874C284.125 72.9706 283.131 70.6504 281.142 68.9268C279.154 67.2032 276.668 66.3415 273.685 66.3415C270.834 66.3415 268.414 67.1701 266.426 68.8274C264.503 70.4847 263.31 72.838 262.846 75.8874H284.125ZM327.501 62.7617C329.49 59.7123 331.976 57.3258 334.959 55.6022C337.942 53.8124 341.256 52.9174 344.902 52.9174V70.9156H340.229C335.986 70.9156 332.804 71.8436 330.683 73.6998C328.562 75.4897 327.501 78.6717 327.501 83.2458V109H310.497V53.5141H327.501V62.7617Z" fill="url(#paint0_linear_1126_643)"/>
<rect x="276.876" y="92.7993" width="71.1241" height="33.6501" rx="1.73157" fill="white"/>
<path d="M300.121 107.283C300.121 108.398 299.865 109.421 299.353 110.353C298.842 111.266 298.056 112.006 296.996 112.573C295.937 113.139 294.621 113.422 293.05 113.422H290.145V120.329H285.458V101.089H293.05C294.585 101.089 295.882 101.354 296.942 101.884C298.001 102.414 298.796 103.145 299.326 104.077C299.856 105.009 300.121 106.077 300.121 107.283ZM292.694 109.695C293.589 109.695 294.256 109.485 294.694 109.065C295.133 108.645 295.352 108.051 295.352 107.283C295.352 106.516 295.133 105.922 294.694 105.502C294.256 105.082 293.589 104.872 292.694 104.872H290.145V109.695H292.694ZM312.372 120.329L308.371 113.066H307.247V120.329H302.561V101.089H310.426C311.943 101.089 313.231 101.354 314.291 101.884C315.369 102.414 316.173 103.145 316.702 104.077C317.232 104.99 317.497 106.014 317.497 107.146C317.497 108.425 317.132 109.567 316.401 110.572C315.688 111.577 314.629 112.29 313.222 112.71L317.662 120.329H312.372ZM307.247 109.75H310.152C311.011 109.75 311.65 109.54 312.071 109.12C312.509 108.699 312.728 108.106 312.728 107.338C312.728 106.607 312.509 106.032 312.071 105.612C311.65 105.191 311.011 104.981 310.152 104.981H307.247V109.75ZM329.538 120.521C327.729 120.521 326.067 120.101 324.55 119.26C323.052 118.42 321.855 117.25 320.96 115.752C320.083 114.236 319.644 112.536 319.644 110.654C319.644 108.772 320.083 107.082 320.96 105.584C321.855 104.086 323.052 102.917 324.55 102.076C326.067 101.236 327.729 100.815 329.538 100.815C331.347 100.815 333.001 101.236 334.499 102.076C336.015 102.917 337.203 104.086 338.062 105.584C338.939 107.082 339.377 108.772 339.377 110.654C339.377 112.536 338.939 114.236 338.062 115.752C337.185 117.25 335.997 118.42 334.499 119.26C333.001 120.101 331.347 120.521 329.538 120.521ZM329.538 116.245C331.073 116.245 332.297 115.734 333.211 114.711C334.142 113.687 334.608 112.335 334.608 110.654C334.608 108.955 334.142 107.603 333.211 106.598C332.297 105.575 331.073 105.063 329.538 105.063C327.985 105.063 326.743 105.566 325.811 106.571C324.897 107.576 324.441 108.937 324.441 110.654C324.441 112.354 324.897 113.715 325.811 114.738C326.743 115.743 327.985 116.245 329.538 116.245Z" fill="#12131B"/>
<defs>
<linearGradient id="paint0_linear_1126_643" x1="173.5" y1="31.9217" x2="173.5" y2="149" gradientUnits="userSpaceOnUse">
<stop stop-color="#FBA931"/>
<stop offset="1" stop-color="#FBC231"/>
</linearGradient>
</defs>
</svg>
